<svg xmlns="http://www.w3.org/2000/svg" xmlns:xlink="http://www.w3.org/1999/xlink" width="1882.6" height="220.58" viewBox="0 0 1882.6 220.58"><defs><linearGradient id="a" x1="858.35" y1="305.14" x2="1113.04" y2="50.45" gradientUnits="userSpaceOnUse"><stop offset="0" stop-color="#2563eb"/><stop offset="0.2" stop-color="#6f5ce0"/><stop offset="0.4" stop-color="#9556d3"/><stop offset="0.6" stop-color="#b051c5"/><stop offset="0.8" stop-color="#c44db6"/><stop offset="1" stop-color="#d34da6"/></linearGradient></defs><title>racehunter-logo</title><path d="M211.74,291.26l-44.62-64a82.65,82.65,0,0,1-8.42.31H109.4v63.65H68.84V72.86H158.7q28.38,0,49.45,9.36t32.29,26.83q11.24,17.48,11.23,41.5,0,24.64-12,42.43T205.19,219.5l50.23,71.76ZM197.07,118.41q-13.73-11.23-40.24-11.23H109.4v87h47.43q26.5,0,40.24-11.39t13.73-32.29Q210.8,129.64,197.07,118.41Z" transform="translate(-68.84 -72.86)" fill="url(#a)"/><path d="M411.57,140.41q19.5,17.63,19.5,53.19v97.66H394.26V271q-7.18,10.92-20.44,16.69t-32,5.77q-18.72,0-32.76-6.39T287.4,269.26a45.1,45.1,0,0,1-7.65-25.74q0-22.46,16.69-36T349,193.92h43.05v-2.5q0-17.47-10.45-26.83t-31-9.36A89.72,89.72,0,0,0,323,159.59,68.22,68.22,0,0,0,300,171.76l-15.29-28.39q13.11-10,31.52-15.29a140.41,140.41,0,0,1,39-5.3Q392.07,122.78,411.57,140.41ZM376,258.34a36.49,36.49,0,0,0,16.07-19.18V219.81H351.82q-33.69,0-33.69,22.15a19.89,19.89,0,0,0,8.42,16.85q8.43,6.24,23.4,6.24A50.26,50.26,0,0,0,376,258.34Z" transform="translate(-68.84 -72.86)" fill="url(#a)"/><path d="M512.5,282.52a80.21,80.21,0,0,1-32.14-30.42Q468.83,232.62,468.82,208t11.54-44a80.86,80.86,0,0,1,32-30.26q20.43-10.92,46.65-10.92,24.64,0,43.21,10a64.83,64.83,0,0,1,27.92,28.71l-30,17.47a47.66,47.66,0,0,0-17.94-17.32,49.13,49.13,0,0,0-23.55-5.77q-21.85,0-36.2,14.2T508.13,208q0,23.7,14.2,37.9t36.35,14.2a49,49,0,0,0,23.55-5.77A47.58,47.58,0,0,0,600.17,237l30,17.47a67.49,67.49,0,0,1-28.23,28.86q-18.57,10.14-42.9,10.14Q533.09,293.44,512.5,282.52Z" transform="translate(-68.84 -72.86)" fill="url(#a)"/><path d="M817.32,220.43H686.59q3.43,18.42,17.94,29.18t36,10.76q27.45,0,45.24-18.09l20.9,24a70.35,70.35,0,0,1-28.39,20.28q-17.16,6.87-38.69,6.86-27.45,0-48.36-10.92A78.66,78.66,0,0,1,659,252.1Q647.6,232.62,647.59,208q0-24.35,11.08-43.84A78.56,78.56,0,0,1,689.4,133.7q19.67-10.92,44.31-10.92,24.33,0,43.52,10.76a76.24,76.24,0,0,1,29.95,30.27Q818,183.31,818,208.89,818,213,817.32,220.43ZM702,165.05q-12.94,11.08-15.76,29.49h94.54q-2.51-18.09-15.29-29.33T733.71,154Q715,154,702,165.05Z" transform="translate(-68.84 -72.86)" fill="url(#a)"/><path d="M1053.19,72.86v218.4h-40.56v-93.6H899.69v93.6H859.13V72.86h40.56V163h112.94V72.86Z" transform="translate(-68.84 -72.86)" fill="url(#a)"/><path d="M1269.41,124.65V291.26h-37.13V270a62.1,62.1,0,0,1-23.4,17.32,75.22,75.22,0,0,1-30.26,6.08q-33.39,0-52.58-18.56t-19.18-55.07V124.65h39v89.86q0,22.45,10.14,33.54t28.86,11.07q20.9,0,33.22-13t12.33-37.28V124.65Z" transform="translate(-68.84 -72.86)" fill="url(#a)"/><path d="M1465.66,141.19q19,18.41,19,54.6v95.47h-39V200.78q0-21.84-10.3-32.92t-29.32-11.07q-21.54,0-34,13T1359.58,207v84.24h-39V124.65h37.13v21.53A60.9,60.9,0,0,1,1382,128.71q14.67-5.93,33.07-5.93Q1446.63,122.78,1465.66,141.19Z" transform="translate(-68.84 -72.86)" fill="url(#a)"/><path d="M1634.45,282.21a45.82,45.82,0,0,1-16.69,8.42,74.93,74.93,0,0,1-20.75,2.81q-27.46,0-42.43-14.35t-15-41.81V157.1h-27.46V125.9h27.46V87.83h39V125.9h44.62v31.2H1578.6v79.25q0,12.17,5.93,18.56t17.16,6.4q13.1,0,21.84-6.87Z" transform="translate(-68.84 -72.86)" fill="url(#a)"/><path d="M1817,220.43H1686.24q3.43,18.42,17.94,29.18t36,10.76q27.45,0,45.24-18.09l20.9,24A70.42,70.42,0,0,1,1778,286.58q-17.16,6.87-38.69,6.86-27.45,0-48.36-10.92a78.6,78.6,0,0,1-32.29-30.42q-11.4-19.48-11.39-44.14,0-24.35,11.08-43.84a78.56,78.56,0,0,1,30.73-30.42q19.65-10.92,44.3-10.92,24.35,0,43.53,10.76a76.31,76.31,0,0,1,29.95,30.27q10.77,19.5,10.76,45.08Q1817.59,213,1817,220.43Zm-115.28-55.38q-13,11.08-15.76,29.49h94.54q-2.51-18.09-15.29-29.33T1733.35,154Q1714.63,154,1701.69,165.05Z" transform="translate(-68.84 -72.86)" fill="url(#a)"/><path d="M1951.44,122.78v37.13a49.09,49.09,0,0,0-9-.94q-22.77,0-35.57,13.26T1894,210.45v80.81h-39V124.65h37.13V149Q1909,122.77,1951.44,122.78Z" transform="translate(-68.84 -72.86)" fill="url(#a)"/></svg>